{"title":"Girl.with.a.Pearl.Earring.2003.BRRip.x264.aac.mp4.anoXmous","uid":6884912,"size":731850868,"categoryP":"video","categoryS":"hd___movies","magnet":"?xt=urn:btih:28d2c496f07424c9a63b1aa2af50b36ed7876b8e&amp;dn=Girl.with.a.Pearl.Earring.2003.BRRip.x264.aac.mp4.anoXmous&amp;tr=udp%3A%2F%2Ftracker.openbittorrent.com%3A80&amp;tr=udp%3A%2F%2Fopen.demonii.com%3A1337&amp;tr=udp%3A%2F%2Ftracker.coppersurfer.tk%3A6969&amp;tr=udp%3A%2F%2Fexodus.desync.com%3A6969","seeders":0,"leechers":1,"uploader":"anoXmous","files":-1,"time":1323790453,"description":"Girl.with.a.Pearl.Earring.2003.BRRip.x264.aac.mp4.anoXmous\n\nFormat                           : MPEG-4\nFormat profile                   : Base Media\nCodec ID                         : isom\nFile size                        : 698 MiB\nDuration                         : 1h 39mn\nOverall bit rate mode            : Variable\nOverall bit rate                 : 976 Kbps\n\n\nVideo\nID                               : 1\nFormat                           : AVC\nFormat/Info                      : Advanced Video Codec\nFormat profile                   : &lt;a class=&quot;__cf_email__&quot; href=&quot;/cdn-cgi/l/email-protection&quot; data-cfemail=&quot;672f0e000f272b534956&quot;&gt;[email&amp;#160;protected]&lt;/a&gt;&lt;script cf-hash='f9e31' type=&quot;text/javascript&quot;&gt;\n/* &lt;![CDATA[ */!function(){try{var t=&quot;currentScript&quot;in document?document.currentScript:function(){for(var t=document.getElementsByTagName(&quot;script&quot;),e=t.length;e--;)if(t[e].getAttribute(&quot;cf-hash&quot;))return t[e]}();if(t&amp;&amp;t.previousSibling){var e,r,n,i,c=t.previousSibling,a=c.getAttribute(&quot;data-cfemail&quot;);if(a){for(e=&quot;&quot;,r=parseInt(a.substr(0,2),16),n=2;a.length-n;n+=2)i=parseInt(a.substr(n,2),16)^r,e+=String.fromCharCode(i);e=document.createTextNode(e),c.parentNode.replaceChild(e,c)}}}catch(u){}}();/* ]]&gt; */&lt;/script&gt;\nFormat settings, CABAC           : Yes\nFormat settings, ReFrames        : 4 frames\nCodec ID                         : avc1\nCodec ID/Info                    : Advanced Video Coding\nDuration                         : 1h 39mn\nBit rate                         : 909 Kbps\nMaximum bit rate                 : 7 420 Kbps\nWidth                            : 1 274 pixels\nHeight                           : 540 pixels\nDisplay aspect ratio             : 2.35:1\nFrame rate mode                  : Constant\nFrame rate                       : 23.976 fps\nColor space                      : YUV\nChroma subsampling               : 4:2:0\nBit depth                        : 8 bits\nScan type                        : Progressive\nBits/(Pixel*Frame)               : 0.055\nStream size                      : 650 MiB (93%)\nWriting library                  : x264 core 120 r2120 0c7dab9\n\nAudio\nID                               : 2\nFormat                           : AAC\nFormat/Info                      : Advanced Audio Codec\nFormat profile                   : LC\nCodec ID                         : 40\nDuration                         : 1h 39mn\nBit rate mode                    : Variable\nBit rate                         : 64.3 Kbps\nMaximum bit rate                 : 91.9 Kbps\nChannel(s)                       : 2 channels\nChannel positions                : Front: L R\nSampling rate                    : 48.0 KHz \nCompression mode                 : Lossy\nStream size                      : 46.0 MiB (7%)\nLanguage                         : English\n\n                              SUB:\nGirl.with.a.Pearl.Earring.2003.BRRip.x264.aac.mp4.anoXmous_swe.srt\n &lt;a href=&quot;\nhttp://www.imdb.com/title/tt0335119/&quot; rel=&quot;nofollow&quot; target=&quot;_NEW&quot;&gt;\nhttp://www.imdb.com/title/tt0335119/&lt;/a&gt;\n\n +++++++ This work very fine with PSP and XBOX :) +++++++++","torrent":{"xt":"urn:btih:28d2c496f07424c9a63b1aa2af50b36ed7876b8e","amp;dn":"Girl.with.a.Pearl.Earring.2003.BRRip.x264.aac.mp4.anoXmous","amp;tr":["udp%3A%2F%2Ftracker.openbittorrent.com%3A80","udp%3A%2F%2Fopen.demonii.com%3A1337","udp%3A%2F%2Ftracker.coppersurfer.tk%3A6969","udp%3A%2F%2Fexodus.desync.com%3A6969"],"infoHash":"28d2c496f07424c9a63b1aa2af50b36ed7876b8e","infoHashBuffer":{"type":"Buffer","data":[40,210,196,150,240,116,36,201,166,59,26,162,175,80,179,110,215,135,107,142]},"announce":[],"urlList":[]}}